<svg id="Capa_1" enable-background="new 0 0 512 512" height="512" viewBox="0 0 512 512" width="512" xmlns="http://www.w3.org/2000/svg"><g><path d="m60 356.859-60 34.641 60 34.641v85.859h392v-241h-392zm316-25.859v93.521l-30-15v42.479h-30v-91.021l30 15v-44.979zm-90 0v93.521l-30-15v42.479h-30v-91.021l30 15v-44.979zm-90 0v93.521l-30-15v42.479h-30v-91.021l30 15v-44.979z"/><path d="m452 85.859v-85.859h-392v241h392v-85.859l60-34.641zm-316 95.141v-91.021l30 15v-44.979h30v93.521l-30-15v42.479zm90 0v-91.021l30 15v-44.979h30v93.521l-30-15v42.479zm90 0v-91.021l30 15v-44.979h30v93.521l-30-15v42.479z"/></g></svg>